<svg width="136" height="142" viewBox="0 0 136 142" fill="none" xmlns="http://www.w3.org/2000/svg">
<path d="M135.352 33.9525V7.055H128.61V0.3125H74.7425V7.055H68V47.4375H61.2575V54.18H54.515V60.9225H41.1025V67.665H34.36V74.335H20.875V67.665H14.1325V60.9225H7.38996V47.4375H0.647461V87.82H7.38996V94.5625H14.1325V101.305H20.875V108.048H27.6175V114.79H34.36V141.688H47.7725V134.945H41.1025V128.202H47.7725V121.46H54.515V114.79H61.2575V121.46H68V141.688H81.485V134.945H74.7425V108.048H81.485V101.305H88.2275V87.82H94.8975V67.665H101.64V74.335H108.382V60.9225H94.8975V47.4375H121.867V40.695H101.64V33.9525H135.352ZM88.2275 13.7975H81.485V7.055H88.2275V13.7975Z" fill="#01FD85"/>
</svg>
