<svg width="138" height="144" viewBox="0 0 138 144" fill="none" xmlns="http://www.w3.org/2000/svg">
<path d="M136.352 34.9525V8.055H129.61V1.3125H75.7425V8.055H69V48.4375H62.2575V55.18H55.515V61.9225H42.1025V68.665H35.36V75.335H21.875V68.665H15.1325V61.9225H8.38996V48.4375H1.64746V88.82H8.38996V95.5625H15.1325V102.305H21.875V109.048H28.6175V115.79H35.36V142.688H48.7725V135.945H42.1025V129.202H48.7725V122.46H55.515V115.79H62.2575V122.46H69V142.688H82.485V135.945H75.7425V109.048H82.485V102.305H89.2275V88.82H95.8975V68.665H102.64V75.335H109.382V61.9225H95.8975V48.4375H122.867V41.695H102.64V34.9525H136.352ZM89.2275 14.7975H82.485V8.055H89.2275V14.7975Z" fill="#01FD85" stroke="black" stroke-width="2" stroke-linecap="round" stroke-linejoin="round"/>
</svg>
